<?xml version="1.0" encoding="UTF-8"?>
<svg id="Layer_3" data-name="Layer 3" xmlns="http://www.w3.org/2000/svg" viewBox="0 0 256 256">
  <defs>
    <style>
      .cls-1 {
        fill: #231f20;
      }

      .cls-1, .cls-2 {
        stroke-width: 0px;
      }

      .cls-2 {
        fill: #fff;
      }
    </style>
  </defs>
  <path class="cls-1" d="M39.5,20.05h147c27.29,0,49.45,22.16,49.45,49.45v117c0,27.29-22.16,49.45-49.45,49.45H39.5c-10.73,0-19.45-8.71-19.45-19.45V39.5c0-10.73,8.71-19.45,19.45-19.45Z"/>
  <path class="cls-2" d="M74.17,200.29h-12.44c-10.9,0-19.74-8.84-19.74-19.74v-105.1c0-10.9,8.84-19.74,19.74-19.74h12.44c10.9,0,19.74,8.84,19.74,19.74v29.89c0,4.39,2.51,8.4,6.46,10.33,0,0,12.25,7.94,12.26,12.33,0,4.39-11.64,13.95-11.64,13.95-4.28,1.78-7.07,5.97-7.07,10.61v28c0,10.9-8.84,19.74-19.74,19.74ZM194.23,200.29h-10.18c-5.84,0-11.38-2.58-15.13-7.06l-31.24-37.25c-3.75-4.47-9.29-7.06-15.13-7.06h-6.69c22.99-20.93,22.25-16.12-.47-39.49h6.6c5.84,0,11.38-2.59,15.13-7.06l33.19-39.61c3.75-4.48,9.29-7.06,15.13-7.06h8.52c17.11,0,26.12,20.27,14.66,32.97l-22.72,25.18c-6.64,7.35-6.8,18.49-.37,26.03l23.74,27.86c10.92,12.82,1.81,32.55-15.03,32.55Z"/>
</svg>